<?xml version="1.0" standalone="no"?>
<!DOCTYPE svg PUBLIC "-//W3C//DTD SVG 20010904//EN"
 "http://www.w3.org/TR/2001/REC-SVG-20010904/DTD/svg10.dtd">
<svg version="1.0" xmlns="http://www.w3.org/2000/svg"
 width="1000.000000pt" height="1000.000000pt" viewBox="0 0 1000.000000 1000.000000"
 preserveAspectRatio="xMidYMid meet" >

<g transform="translate(0.000000,1000.000000) scale(0.100000,-0.100000)"
fill="#1a1a1a" stroke="none" >
<path d="M4930 9468 c0 -13 32 -16 198 -22 422 -15 745 -64 1121 -172 162 -46
195 -52 189 -31 -9 27 -371 127 -623 171 -246 42 -397 57 -647 63 -207 5 -238
4 -238 -9z"/>
<path d="M4458 9443 c-10 -2 -18 -11 -18 -19 0 -11 10 -14 38 -12 25 2 37 8
37 18 0 15 -27 22 -57 13z"/>
<path d="M3952 9345 c-383 -99 -802 -275 -1138 -476 -123 -74 -154 -96 -154
-111 0 -20 38 -3 153 66 382 230 775 391 1226 504 118 29 156 52 84 52 -21 -1
-98 -16 -171 -35z"/>
<path d="M6760 9111 c0 -13 22 -29 53 -36 21 -6 27 -4 27 9 0 8 -9 20 -19 26
-24 12 -61 13 -61 1z"/>
<path d="M4825 9049 c-420 -23 -822 -111 -1215 -266 -804 -318 -1476 -880
-1926 -1610 -298 -484 -476 -988 -555 -1578 -20 -147 -23 -213 -23 -485 -1
-340 11 -480 60 -735 217 -1125 896 -2092 1874 -2672 835 -494 1827 -663 2785
-472 906 180 1737 687 2315 1413 437 550 720 1202 819 1891 59 412 53 868 -19
1275 -118 664 -422 1308 -871 1845 -104 126 -346 368 -464 466 -689 574 -1469
882 -2361 929 -197 10 -216 10 -419 -1z m693 -83 c906 -123 1665 -495 2289
-1122 301 -303 543 -642 733 -1029 204 -415 318 -805 376 -1285 25 -202 25
-638 0 -840 -94 -779 -363 -1425 -844 -2030 -100 -125 -450 -475 -578 -576
-595 -475 -1239 -744 -2019 -846 -134 -17 -703 -18 -845 0 -278 34 -568 98
-805 177 -1146 382 -2059 1286 -2450 2425 -144 421 -207 788 -209 1220 -1 270
6 398 35 595 165 1145 826 2150 1816 2762 480 296 1067 498 1608 552 61 6 124
13 140 15 75 10 646 -3 753 -18z"/>
<path d="M5352 8818 c-7 -7 -12 -21 -12 -33 0 -12 5 -26 12 -33 7 -7 21 -12
33 -12 12 0 26 5 33 12 7 7 12 21 12 33 0 12 -5 26 -12 33 -7 7 -21 12 -33 12
-12 0 -26 -5 -33 -12z"/>
<path d="M4872 8788 c-17 -17 -15 -65 4 -72 29 -11 53 -6 64 13 14 27 13 37
-6 55 -18 19 -45 21 -62 4z"/>
<path d="M4386 8724 c-33 -32 -13 -74 35 -74 41 0 56 60 20 80 -27 14 -37 13
-55 -6z"/>
<path d="M5822 8688 c-7 -7 -12 -21 -12 -33 0 -12 5 -26 12 -33 7 -7 21 -12
33 -12 12 0 26 5 33 12 7 7 12 21 12 33 0 12 -5 26 -12 33 -7 7 -21 12 -33 12
-12 0 -26 -5 -33 -12z"/>
<path d="M3897 8663 c-4 -3 -7 -18 -7 -33 0 -49 42 -66 75 -30 26 29 7 70 -33
70 -16 0 -32 -3 -35 -7z"/>
<path d="M6290 8555 c-19 -22 -4 -64 25 -71 31 -8 55 10 55 40 0 43 -53 63
-80 31z"/>
<path d="M3462 8448 c-7 -7 -12 -21 -12 -33 0 -12 5 -26 12 -33 7 -7 21 -12
33 -12 12 0 26 5 33 12 7 7 12 21 12 33 0 12 -5 26 -12 33 -7 7 -21 12 -33 12
-12 0 -26 -5 -33 -12z"/>
<path d="M6756 8404 c-33 -32 -13 -74 35 -74 41 0 56 60 20 80 -27 14 -37 13
-55 -6z"/>
<path d="M3048 8209 c-26 -14 -23 -65 3 -79 16 -9 26 -8 45 5 30 19 31 49 2
69 -26 19 -27 19 -50 5z"/>
<path d="M7148 8109 c-26 -14 -23 -65 3 -79 16 -9 26 -8 45 5 30 19 31 49 2
69 -26 19 -27 19 -50 5z"/>
<path d="M2610 7950 c-15 -29 -3 -59 26 -66 32 -8 54 11 54 46 0 43 -60 57
-80 20z"/>
<path d="M7521 7796 c-17 -21 -6 -63 19 -71 34 -11 62 12 58 48 -3 28 -7 32
-34 35 -19 2 -36 -3 -43 -12z"/>
<path d="M2307 7582 c-34 -37 -11 -76 40 -70 23 2 29 9 31 33 6 48 -40 71 -71
37z"/>
<path d="M7868 7456 c-9 -22 -8 -29 7 -46 35 -38 79 -16 73 37 -2 23 -8 29
-35 31 -27 3 -35 -1 -45 -22z"/>
<path d="M2000 7194 c-10 -11 -11 -23 -4 -42 17 -48 84 -38 84 12 0 43 -53 63
-80 30z"/>
<path d="M8122 7048 c-7 -7 -12 -21 -12 -33 0 -12 5 -26 12 -33 7 -7 21 -12
33 -12 12 0 26 5 33 12 7 7 12 21 12 33 0 12 -5 26 -12 33 -7 7 -21 12 -33 12
-12 0 -26 -5 -33 -12z"/>
<path d="M1760 6800 c-9 -17 -8 -26 5 -46 29 -45 80 -22 73 33 -2 23 -8 29
-35 31 -24 2 -34 -2 -43 -18z"/>
<path d="M8367 6622 c-34 -37 -11 -76 40 -70 23 2 29 9 31 33 6 48 -40 71 -71
37z"/>
<path d="M1570 6335 c-19 -22 -4 -64 25 -71 42 -11 67 24 49 70 -8 20 -57 21
-74 1z"/>
<path d="M8552 6178 c-17 -17 -15 -53 3 -68 22 -19 64 -4 71 25 4 15 1 32 -6
40 -15 18 -51 20 -68 3z"/>
<path d="M1440 5860 c-15 -29 -3 -59 26 -66 30 -8 54 11 54 40 0 46 -59 64
-80 26z"/>
<path d="M8616 5694 c-33 -32 -13 -74 35 -74 41 0 56 60 20 80 -27 14 -37 13
-55 -6z"/>
<path d="M3043 5502 c-90 -32 -162 -96 -210 -187 -22 -41 -27 -66 -31 -145 -3
-80 0 -104 18 -153 28 -76 110 -163 187 -202 52 -27 68 -29 158 -30 83 0 108
4 149 23 109 50 183 138 212 252 43 168 -33 337 -188 420 -56 30 -73 34 -153
37 -68 3 -102 -1 -142 -15z m244 -34 c71 -26 153 -102 188 -172 126 -258 -124
-552 -400 -471 -261 75 -334 399 -132 580 92 84 225 108 344 63z"/>
<path d="M3927 5513 c-14 -13 -6 -33 13 -33 13 0 20 7 20 20 0 19 -20 27 -33
13z"/>
<path d="M4697 5513 c-14 -13 -6 -33 13 -33 13 0 20 7 20 20 0 19 -20 27 -33
13z"/>
<path d="M5997 5513 c-4 -3 -7 -170 -7 -370 0 -287 3 -364 13 -361 9 4 13 89
15 371 1 202 -2 367 -6 367 -5 0 -12 -3 -15 -7z"/>
<path d="M6142 5508 c4 -10 54 -14 189 -18 l184 -5 -1 -25 c0 -16 -74 -131
-197 -306 -269 -384 -269 -376 39 -372 266 4 266 21 -1 28 -195 5 -200 5 -203
27 -2 14 60 112 197 309 208 297 221 323 183 357 -16 15 -46 17 -206 17 -146
0 -187 -3 -184 -12z"/>
<path d="M1350 5290 c-15 -29 -4 -59 26 -66 34 -9 56 12 52 50 -3 27 -7 31
-35 34 -24 2 -34 -2 -43 -18z"/>
<path d="M3722 5279 c-26 -13 -55 -39 -70 -62 -27 -40 -27 -41 -27 -231 0
-259 18 -266 25 -9 5 173 7 194 26 219 34 46 70 67 123 72 34 3 51 9 51 18 0
22 -79 17 -128 -7z"/>
<path d="M3930 5040 c0 -205 3 -261 13 -257 9 3 12 63 12 257 0 194 -3 254
-12 258 -10 3 -13 -53 -13 -258z"/>
<path d="M4225 5285 c-103 -38 -165 -132 -165 -249 0 -60 5 -79 30 -123 50
-88 127 -132 230 -132 69 -1 143 32 187 82 18 21 35 37 38 37 9 0 5 -90 -6
-135 -14 -56 -79 -131 -134 -156 -85 -39 -196 -19 -263 49 -47 47 -73 48 -45
2 36 -62 119 -100 215 -100 101 0 182 49 234 142 l29 53 0 175 c0 190 -5 213
-60 278 -66 78 -194 112 -290 77z m166 -30 c76 -27 138 -102 153 -188 22 -119
-97 -257 -221 -257 -91 0 -173 51 -215 133 -43 85 -17 203 60 267 69 59 142
73 223 45z"/>
<path d="M4700 5040 c0 -205 3 -261 13 -257 9 3 12 63 12 257 0 194 -3 254
-12 258 -10 3 -13 -53 -13 -258z"/>
<path d="M4965 5281 c-49 -23 -89 -64 -109 -113 -21 -49 -24 -392 -3 -386 9 4
13 53 17 185 5 174 6 181 32 220 31 46 97 83 149 83 50 -1 112 -33 145 -76 29
-37 29 -37 34 -221 7 -247 25 -242 25 7 l0 185 -29 42 c-55 82 -172 115 -261
74z"/>
<path d="M5510 5280 c-56 -26 -105 -72 -133 -125 -17 -31 -22 -58 -22 -115 0
-57 5 -84 22 -115 61 -114 199 -173 314 -133 47 16 114 65 130 96 13 24 14 23
19 -36 3 -34 10 -63 15 -65 6 -1 11 54 13 147 3 177 -8 222 -69 283 -55 56
-101 76 -179 80 -50 3 -75 -1 -110 -17z m201 -37 c173 -88 173 -317 -1 -406
-46 -24 -65 -28 -112 -25 -113 8 -207 100 -216 213 -4 45 0 65 23 110 59 121
189 167 306 108z"/>
<path d="M6780 5280 c-56 -26 -105 -72 -133 -125 -17 -31 -22 -58 -22 -115 0
-57 5 -84 22 -115 61 -114 199 -173 314 -133 47 16 114 65 130 96 13 24 14 23
19 -36 3 -34 10 -63 15 -65 6 -1 11 54 13 147 3 177 -8 222 -69 283 -55 56
-101 76 -179 80 -50 3 -75 -1 -110 -17z m196 -34 c148 -69 180 -250 66 -365
-108 -108 -276 -87 -356 42 -43 70 -47 140 -11 212 57 118 185 165 301 111z"/>
<path d="M7342 5279 c-26 -13 -55 -39 -70 -62 -27 -40 -27 -41 -27 -231 0
-259 18 -266 25 -9 5 173 7 194 26 219 34 46 70 67 123 72 34 3 51 9 51 18 0
22 -79 17 -128 -7z"/>
<path d="M8670 5200 c-15 -29 -3 -59 26 -66 32 -8 54 11 54 46 0 43 -60 57
-80 20z"/>
<path d="M1402 4738 c-28 -28 -7 -78 33 -78 42 0 59 44 29 74 -18 19 -45 21
-62 4z"/>
<path d="M8683 4733 c-19 -7 -16 -70 3 -77 25 -10 42 -7 58 10 39 38 -8 89
-61 67z"/>
<path d="M8551 4256 c-7 -8 -11 -27 -9 -43 2 -23 8 -29 35 -31 27 -3 35 1 45
22 9 22 8 29 -7 46 -21 24 -48 26 -64 6z"/>
<path d="M1460 4245 c-31 -38 27 -96 65 -65 18 15 20 51 3 68 -17 17 -53 15
-68 -3z"/>
<path d="M1592 3788 c-30 -30 -3 -83 39 -76 32 5 45 31 31 62 -13 28 -49 35
-70 14z"/>
<path d="M8415 3776 c-23 -34 -5 -66 35 -66 40 0 58 32 35 66 -20 31 -50 31
-70 0z"/>
<path d="M1842 3364 c-43 -30 -4 -93 46 -73 29 11 31 63 3 79 -25 13 -22 13
-49 -6z"/>
<path d="M8230 3335 c-31 -38 27 -96 65 -65 18 15 20 51 3 68 -17 17 -53 15
-68 -3z"/>
<path d="M7936 2954 c-34 -34 -9 -78 41 -72 23 2 29 9 31 33 6 46 -40 71 -72
39z"/>
<path d="M2082 2938 c-17 -17 -15 -53 3 -68 20 -17 62 -5 70 20 14 44 -41 80
-73 48z"/>
<path d="M2380 2560 c-15 -29 -3 -59 26 -66 32 -8 54 11 54 46 0 43 -60 57
-80 20z"/>
<path d="M7632 2568 c-28 -28 -7 -78 33 -78 27 0 45 18 45 45 0 27 -18 45 -45
45 -12 0 -26 -5 -33 -12z"/>
<path d="M2772 2268 c-28 -28 -7 -78 33 -78 27 0 45 18 45 45 0 27 -18 45 -45
45 -12 0 -26 -5 -33 -12z"/>
<path d="M7282 2238 c-28 -28 -7 -78 33 -78 27 0 45 18 45 45 0 27 -18 45 -45
45 -12 0 -26 -5 -33 -12z"/>
<path d="M6866 1997 c-12 -9 -17 -23 -14 -42 2 -24 8 -31 31 -33 52 -6 76 38
39 71 -22 20 -33 21 -56 4z"/>
<path d="M3163 1973 c-19 -7 -16 -70 3 -77 25 -10 42 -7 58 10 39 38 -8 89
-61 67z"/>
<path d="M3592 1758 c-7 -7 -12 -21 -12 -33 0 -47 62 -63 81 -21 22 47 -33 90
-69 54z"/>
<path d="M6431 1746 c-20 -23 -5 -65 24 -72 35 -9 57 12 53 50 -3 27 -7 31
-34 34 -19 2 -36 -3 -43 -12z"/>
<path d="M4062 1628 c-28 -28 -7 -78 33 -78 27 0 45 18 45 45 0 27 -18 45 -45
45 -12 0 -26 -5 -33 -12z"/>
<path d="M5988 1599 c-36 -21 -16 -79 27 -79 42 0 59 44 29 74 -18 18 -32 20
-56 5z"/>
<path d="M5490 1520 c-9 -17 -8 -26 5 -46 29 -45 80 -22 73 33 -2 23 -8 29
-35 31 -24 2 -34 -2 -43 -18z"/>
<path d="M4532 1498 c-28 -28 -7 -78 33 -78 27 0 45 18 45 45 0 27 -18 45 -45
45 -12 0 -26 -5 -33 -12z"/>
<path d="M5012 1468 c-28 -28 -7 -78 33 -78 27 0 45 18 45 45 0 27 -18 45 -45
45 -12 0 -26 -5 -33 -12z"/>
<path d="M7096 8951 c-4 -5 4 -16 16 -24 13 -8 93 -56 178 -107 157 -95 400
-267 544 -386 59 -50 81 -63 90 -54 25 27 -309 285 -604 466 -170 104 -213
124 -224 105z"/>
<path d="M2364 8561 c-40 -25 -59 -50 -47 -62 10 -10 93 43 93 60 0 19 -17 20
-46 2z"/>
<path d="M1894 8137 c-130 -133 -314 -353 -314 -373 0 -31 31 -10 86 59 69 86
191 224 288 325 84 87 94 102 68 102 -11 0 -64 -46 -128 -113z"/>
<path d="M8170 8130 c0 -17 49 -62 60 -55 15 10 12 22 -12 45 -23 21 -48 27
-48 10z"/>
<path d="M8360 7921 c0 -10 7 -25 16 -32 24 -20 212 -272 292 -391 303 -453
528 -1001 641 -1565 22 -108 44 -200 50 -206 23 -23 22 27 -3 165 -108 590
-358 1194 -699 1688 -140 203 -266 360 -289 360 -4 0 -8 -8 -8 -19z"/>
<path d="M1416 7545 c-20 -30 -20 -45 -2 -45 16 0 46 37 46 57 0 22 -27 14
-44 -12z"/>
<path d="M1278 7323 c-22 -26 -29 -51 -16 -59 14 -9 48 32 48 57 0 24 -12 24
-32 2z"/>
<path d="M1119 7033 c-153 -321 -267 -641 -330 -922 -23 -104 -23 -111 -4
-111 8 0 18 16 24 38 112 434 180 633 317 921 67 140 73 161 49 161 -8 0 -32
-37 -56 -87z"/>
<path d="M580 5660 l0 -50 165 0 165 0 0 50 0 50 -165 0 -165 0 0 -50z"/>
<path d="M9192 5663 l3 -48 165 0 165 0 3 48 3 47 -171 0 -171 0 3 -47z"/>
<path d="M580 5520 l0 -50 165 0 165 0 0 50 0 50 -165 0 -165 0 0 -50z"/>
<path d="M9190 5520 l0 -50 170 0 170 0 0 50 0 50 -170 0 -170 0 0 -50z"/>
<path d="M580 5380 l0 -50 165 0 165 0 0 50 0 50 -165 0 -165 0 0 -50z"/>
<path d="M9190 5380 l0 -50 170 0 170 0 0 50 0 50 -170 0 -170 0 0 -50z"/>
<path d="M580 5245 l0 -45 165 0 165 0 0 45 0 45 -165 0 -165 0 0 -45z"/>
<path d="M9190 5245 l0 -45 170 0 170 0 0 45 0 45 -170 0 -170 0 0 -45z"/>
<path d="M580 5105 l0 -45 165 0 165 0 0 45 0 45 -165 0 -165 0 0 -45z"/>
<path d="M9190 5105 l0 -45 170 0 170 0 0 45 0 45 -170 0 -170 0 0 -45z"/>
<path d="M580 4965 l0 -45 165 0 165 0 0 45 0 45 -165 0 -165 0 0 -45z"/>
<path d="M9190 4965 l0 -45 170 0 170 0 0 45 0 45 -170 0 -170 0 0 -45z"/>
<path d="M580 4825 l0 -45 165 0 165 0 0 45 0 45 -165 0 -165 0 0 -45z"/>
<path d="M9190 4825 l0 -45 170 0 170 0 0 45 0 45 -170 0 -170 0 0 -45z"/>
<path d="M580 4690 l0 -50 165 0 165 0 0 50 0 50 -165 0 -165 0 0 -50z"/>
<path d="M9190 4690 l0 -50 170 0 170 0 0 50 0 50 -170 0 -170 0 0 -50z"/>
<path d="M580 4550 l0 -50 165 0 165 0 0 50 0 50 -165 0 -165 0 0 -50z"/>
<path d="M9190 4550 l0 -50 170 0 170 0 0 50 0 50 -170 0 -170 0 0 -50z"/>
<path d="M730 4426 c0 -19 9 -84 21 -143 113 -590 368 -1194 714 -1687 120
-171 253 -336 271 -336 28 0 13 30 -54 112 -77 93 -168 218 -258 353 -306 456
-544 1054 -651 1629 -18 101 -43 142 -43 72z"/>
<path d="M9340 4435 c-13 -34 -13 -52 1 -61 15 -9 29 14 29 48 0 37 -18 45
-30 13z"/>
<path d="M9284 4153 c-66 -300 -181 -627 -323 -927 -60 -126 -70 -156 -53
-156 19 0 43 40 102 170 83 182 148 346 203 515 48 149 107 370 107 404 0 31
-29 25 -36 -6z"/>
<path d="M8796 2908 c-18 -25 -21 -58 -7 -58 14 0 41 41 41 62 0 25 -16 23
-34 -4z"/>
<path d="M8651 2679 c-22 -24 -29 -63 -9 -57 23 8 53 57 41 69 -8 8 -17 4 -32
-12z"/>
<path d="M8484 2442 c-6 -4 -50 -54 -98 -112 -86 -103 -129 -150 -270 -298
-55 -57 -67 -75 -58 -84 10 -10 39 14 135 112 111 114 266 290 305 348 15 24
6 47 -14 34z"/>
<path d="M1870 2110 c0 -6 11 -22 25 -35 13 -14 29 -25 35 -25 17 0 11 29 -10
50 -21 21 -50 27 -50 10z"/>
<path d="M2185 1819 c-20 -31 343 -305 625 -474 172 -102 204 -117 198 -90 -2
10 -82 65 -188 129 -193 117 -409 269 -520 366 -77 67 -106 85 -115 69z"/>
<path d="M7717 1679 c-41 -34 -47 -49 -18 -49 24 0 85 56 76 70 -9 15 -17 13
-58 -21z"/>
<path d="M7402 1453 c-7 -3 -71 -40 -142 -83 -348 -208 -792 -390 -1190 -485
-122 -30 -141 -38 -123 -56 21 -21 440 97 688 194 225 88 461 204 672 331 102
61 134 89 115 99 -4 3 -13 2 -20 0z"/>
<path d="M3260 1120 c0 -15 60 -39 79 -32 11 4 9 9 -9 24 -24 19 -70 25 -70 8z"/>
<path d="M3665 971 c-8 -14 18 -26 151 -65 230 -68 476 -118 749 -152 175 -22
596 -26 602 -6 4 9 -17 12 -84 12 -129 0 -410 18 -550 35 -235 29 -601 108
-771 166 -61 21 -88 24 -97 10z"/>
<path d="M5580 785 c-10 -12 -9 -16 5 -21 21 -9 67 6 73 24 6 18 -63 16 -78
-3z"/>
</g>
</svg>
